<?xml version="1.0" encoding="utf-8"?>
<!-- Generator: Adobe Illustrator 24.1.2, SVG Export Plug-In . SVG Version: 6.00 Build 0)  -->
<svg version="1.1" id="Layer_1" xmlns="http://www.w3.org/2000/svg" xmlns:xlink="http://www.w3.org/1999/xlink" x="0px" y="0px"
	 viewBox="0 0 71.4 69.1" style="enable-background:new 0 0 71.4 69.1;" xml:space="preserve">
<style type="text/css">
	.st0{fill:url(#SVGID_1_);}
	.st1{fill:#8F3C36;}
	.st2{fill:#825945;}
	.st3{fill:#664132;}
	.st4{fill:#F2C388;}
	.st5{fill:url(#SVGID_2_);}
	.st6{fill:#EFB289;}
	.st7{fill:#D39D71;}
	.st8{fill:#FFE6CD;}
	.st9{fill:#AF7E5A;}
	.st10{fill:#BF5C55;}
	.st11{fill:#D4796A;}
	.st12{fill:#FFFFFF;}
	.st13{fill:#554D48;}
</style>
<g>
	<g>
		
			<linearGradient id="SVGID_1_" gradientUnits="userSpaceOnUse" x1="35.5723" y1="-3376.927" x2="35.5723" y2="-3440.8069" gradientTransform="matrix(1 0 0 -1 0 -3375.1997)">
			<stop  offset="0" style="stop-color:#DB8471"/>
			<stop  offset="0.6425" style="stop-color:#BF5C55"/>
		</linearGradient>
		<path class="st0" d="M36.4,65.4c0,0-24.9,2.9-32.4-15C0.8,42.8,2.2,34,7.3,27.6c2.3-2.9,5.6-6,10.3-8.7C32.5,10.4,33.2,4.8,33,1.6
			c1,3,0.7,6.3-0.1,8.8c-0.7,2.4,0.3,4.3,2.3,4.2s2.8-1.9,2.5-3.3c-0.4-1.5-1-3.5-0.2-3.2c2.7,1.1,5.1,9.2,8.5,7.7
			c4.1-1.8-4.3-10.4-4.3-10.4s24.6,18,26.8,32.8C70.4,50.5,64,66.1,36.4,65.4z"/>
		<path class="st1" d="M36.5,66.1c-4.2,0.4-8.5,0.1-12.6-0.7c-4.2-0.8-8.3-2.2-11.8-4.5c-3.6-2.3-6.5-5.7-8.2-9.7
			c-1.8-3.9-2.4-8.3-1.7-12.6c0.6-4.2,2.4-8.3,5.1-11.6c2.7-3.3,6-6,9.6-8.2c3.6-2.1,7.2-4.2,10.3-6.9c1.6-1.3,3-2.8,4.1-4.6
			c1.1-1.7,1.7-3.7,1.6-5.8l0,0l0,0c0-0.1,0.1-0.2,0.2-0.2c0.1,0,0.2,0.1,0.2,0.1c0.6,1.9,0.8,4,0.5,6c-0.1,2-1.4,4-0.6,5.7
			c0.4,0.9,1.4,1.3,2.3,1.1c0.9-0.1,1.8-0.7,2-1.6c0.1-0.4,0.1-0.9,0-1.4l-0.4-1.4c-0.1-0.5-0.3-1-0.2-1.5c0-0.1,0-0.3,0.2-0.5
			c0.3-0.1,0.4,0,0.5,0.1c0.2,0.1,0.5,0.3,0.7,0.4c1.5,1.4,2.4,3.2,3.6,4.8c0.6,0.8,1.2,1.6,2,2.1c0.2,0.1,0.4,0.3,0.6,0.3
			c0.1,0,0.2,0.1,0.3,0.1h0.3c0.4,0,0.9-0.2,1.2-0.5c0.7-0.6,0.6-1.7,0.3-2.6c-0.3-0.9-0.8-1.8-1.4-2.6c-1.1-1.6-2.4-3.2-3.7-4.6
			l0,0c-0.1-0.1-0.1-0.2,0-0.3s0.2-0.1,0.2,0c6.2,4.6,12,9.7,17.2,15.4c2.6,2.9,5,5.9,6.9,9.3c1,1.7,1.8,3.5,2.4,5.3l0.4,1.4
			l0.3,1.5c0.1,1,0.3,1.9,0.3,2.9c0.2,3.9-0.6,7.9-2.3,11.5c-1.8,3.5-4.7,6.5-8,8.5c-0.9,0.5-1.7,1-2.6,1.4l-2.7,1.1
			c-1.9,0.6-3.7,1.2-5.7,1.5c-1.9,0.4-3.9,0.6-5.8,0.7c-1,0.1-1.9,0.1-2.9,0.1L36.5,66.1z M36.4,64.7h2.9c1,0,1.9,0,2.9-0.1
			c1.9-0.2,3.8-0.3,5.6-0.7c1.9-0.3,3.7-0.9,5.5-1.4l2.6-1.1c0.9-0.4,1.6-0.9,2.5-1.3c3.2-1.9,5.9-4.7,7.6-8
			c1.7-3.3,2.4-7.1,2.3-10.9c0-0.9-0.2-1.9-0.2-2.8L67.8,37l-0.4-1.4c-0.6-1.8-1.4-3.5-2.3-5.2c-1.9-3.3-4.2-6.4-6.7-9.2
			c-5-5.8-10.7-11-16.8-15.7l0.3-0.3l0,0c1.4,1.5,2.6,3,3.8,4.7c0.5,0.8,1.1,1.7,1.4,2.7c0.2,0.5,0.3,1,0.3,1.5s-0.2,1.1-0.7,1.5
			c-0.4,0.4-1,0.5-1.5,0.5h-0.4c-0.1,0-0.3-0.1-0.4-0.1c-0.3-0.1-0.5-0.2-0.7-0.4c-0.9-0.6-1.5-1.4-2.1-2.2
			c-1.2-1.6-2.1-3.4-3.5-4.7c-0.2-0.2-0.4-0.3-0.6-0.4c-0.3-0.1-0.2-0.2-0.2,0.1c0,0.4,0.1,0.9,0.2,1.4l0.4,1.4
			c0.1,0.5,0.1,1.1,0,1.6c-0.5,2.2-4,2.7-5,0.6c-0.5-1-0.4-2.1-0.1-3.1c0.3-0.9,0.5-1.9,0.6-2.9c0.2-1.9,0.1-4-0.5-5.8l0.4-0.1l0,0
			c0.2,2.1-0.4,4.3-1.5,6.1c-1.1,1.8-2.6,3.4-4.1,4.8c-3.1,2.8-6.7,5.1-10.3,7.2c-3.5,2.1-6.7,4.8-9.3,8c-2.5,3.2-4.2,7.1-4.8,11.1
			c-0.5,4,0,8.2,1.7,11.9c1.6,3.7,4.4,6.9,7.8,9.1c3.4,2.2,7.4,3.6,11.4,4.3C28.1,64.9,32.3,65.1,36.4,64.7z"/>
	</g>
	<g>
		<path class="st2" d="M11.1,13.2l6.9,8.1c-0.5,0.2-1.9,1.5-2.3,2l-7.1-7c-0.7-0.7,0.3-2.7,1-3.4C10.2,12.5,10.5,12.6,11.1,13.2
			L11.1,13.2z"/>
		<path class="st3" d="M10.3,12.7c0.3,0,0.5,0.2,0.8,0.5c0,0,0,0,0,0.1l6.9,8.1c-0.5,0.2-1.9,1.5-2.3,2l-7.1-7
			c-0.7-0.7,0.3-2.7,1-3.3C9.9,12.8,10.1,12.7,10.3,12.7 M10.3,12.3L10.3,12.3c-0.3,0-0.6,0.1-0.9,0.4c-0.7,0.7-2,2.9-1,3.9l7.1,7
			l0.3,0.3l0.3-0.3c0.4-0.5,1.7-1.7,2.1-1.9l0.4-0.2l-0.3-0.4L11.4,13l-0.1-0.1C11,12.6,10.6,12.3,10.3,12.3L10.3,12.3z"/>
	</g>
	<g>
		<path class="st4" d="M69.2,41.8l-1.8-0.9c-0.7-0.4-1.2-1.1-1.3-1.9c-1.6-11.8-14.2-21.3-29.8-21.8C19.8,16.6,6,26.4,4.8,39.1l0,0
			c-0.1,0.7-0.4,1.3-1,1.7c-0.1,0-0.1,0.1-0.2,0.1c-0.8,0.5-1.7,1-1.7,1c-1.6,1-1.5,3.4,0.3,4.1l2.3,0.9c0.7,0.3,1.3,0.9,1.5,1.6
			c1.8,5.2,5.6,10,11.3,12.9c0.9,0.5,1.6,1.3,2,2.3l0.7,2c0.7,1.9,3.9,2.6,5.4,1.1l1.3-1.2c0.9-0.8,2-1.2,3.1-1.2
			c1.7,0,3.5,0,5.4-0.2c1.6-0.2,4.3-0.4,6-0.4h0.6c0.9,0,1.8,0.4,2.4,1.1l1.4,1.5c1.4,1.5,4.7,1.1,5.5-0.7l1-2.3
			c0.4-0.8,1-1.5,1.9-1.8c5.7-2.5,9.4-6.9,11.2-12.6c0.3-1.1,1.1-2,2.1-2.4l1.7-0.8C70.8,45.1,70.9,42.7,69.2,41.8z"/>
		<path class="st3" d="M68.8,42.6l-1.3-0.7c-0.4-0.2-1.1-0.5-1.5-1.1c-0.4-0.5-0.7-1.2-0.7-1.8L65,37.6c-0.1-0.5-0.2-0.9-0.4-1.4
			c-0.1-0.5-0.3-0.9-0.4-1.4c-0.4-0.9-0.7-1.8-1.2-2.6c-0.2-0.4-0.5-0.8-0.7-1.2l-0.8-1.2l-0.4-0.6l-0.5-0.5l-0.9-1.1
			c-1.4-1.4-2.8-2.7-4.4-3.8c-6.4-4.4-14.4-6.4-22.2-5.9c-7.8,0.4-15.5,3.3-21,8.7c-2.8,2.7-4.7,6.1-5.6,9.7
			c-0.1,0.4-0.2,0.9-0.3,1.4L6,39.1c-0.1,0.7-0.4,1.4-0.9,2c-0.2,0.3-0.6,0.5-0.8,0.6l-0.6,0.4l-0.6,0.4c-0.2,0.1-0.5,0.3-0.5,0.3
			c-0.2,0.2-0.4,0.4-0.4,0.6c-0.1,0.5,0.1,1.1,0.5,1.3l0.2,0.1l0.3,0.1l0.7,0.3l1.4,0.6c0.6,0.3,1.2,0.7,1.6,1.3
			c0.2,0.3,0.4,0.6,0.5,0.9l0.3,0.7c0.7,1.8,1.6,3.4,2.8,4.9c1.1,1.5,2.4,2.9,3.9,4.1c0.7,0.6,1.5,1.1,2.3,1.6
			c0.4,0.3,0.8,0.5,1.2,0.7l0.3,0.2c0.1,0.1,0.3,0.1,0.4,0.2c0.3,0.2,0.5,0.4,0.8,0.6c0.5,0.4,0.9,1,1.2,1.5
			c0.3,0.7,0.4,1.1,0.6,1.5l0.3,0.7l0.1,0.4c0,0.1,0.1,0.1,0.1,0.2c0.1,0.2,0.3,0.4,0.6,0.5c0.5,0.3,1.3,0.4,1.9,0.3
			c0.3-0.1,0.6-0.2,0.7-0.3l1.1-1l0.3-0.3c0.1-0.1,0.2-0.2,0.4-0.3c0.3-0.2,0.5-0.4,0.8-0.5c0.6-0.3,1.2-0.5,1.8-0.6
			c0.3,0,0.6-0.1,1-0.1H31c0.5,0,1,0,1.4,0c1,0,1.9-0.1,2.9-0.2c1-0.1,2-0.2,3-0.3s2-0.1,3.1-0.1h0.8c0.3,0,0.7,0,1,0.1
			c0.7,0.1,1.3,0.5,1.9,0.9c0.1,0.1,0.3,0.2,0.4,0.3l0.3,0.3l0.5,0.5l0.5,0.5c0.1,0.1,0.2,0.2,0.2,0.2l0.1,0.1
			c0.4,0.3,1.1,0.5,1.8,0.4s1.2-0.4,1.4-0.8l0.6-1.4l0.3-0.7c0.1-0.2,0.3-0.6,0.4-0.8c0.4-0.6,0.9-1,1.4-1.4
			c0.3-0.2,0.6-0.3,0.8-0.4l0.6-0.3c0.9-0.4,1.7-0.8,2.5-1.4c3.2-2,5.6-5.1,6.9-8.6c0.2-0.4,0.3-0.9,0.5-1.3
			c0.2-0.5,0.5-1.2,0.8-1.6c0.4-0.5,0.9-0.9,1.4-1.2c0.6-0.3,1-0.5,1.5-0.7l0.7-0.3c0.2-0.1,0.3-0.1,0.4-0.2
			c0.2-0.2,0.4-0.4,0.4-0.7C69.6,43.5,69.3,42.9,68.8,42.6z M69.6,41c1.2,0.6,2,2.2,1.7,3.5c-0.1,0.7-0.5,1.3-1.1,1.8
			c-0.3,0.2-0.6,0.4-0.8,0.5l-0.7,0.3c-0.4,0.2-1,0.4-1.2,0.6c-0.3,0.2-0.6,0.5-0.8,0.8s-0.4,0.6-0.5,1c-0.2,0.5-0.3,1-0.5,1.5
			c-1.4,3.9-4.1,7.5-7.6,9.8c-0.9,0.6-1.8,1.1-2.7,1.6l-0.7,0.3c-0.2,0.1-0.3,0.2-0.5,0.3c-0.3,0.2-0.5,0.4-0.7,0.7
			c-0.1,0.2-0.1,0.2-0.2,0.5L53,64.9l-0.6,1.4C52.1,67,51.5,67.6,51,68c-0.6,0.4-1.2,0.6-1.9,0.7c-1.3,0.2-2.7,0.1-3.9-0.8
			c-0.1-0.1-0.3-0.2-0.4-0.4c-0.1-0.1-0.2-0.2-0.3-0.3L44,66.7l-0.5-0.5L43.3,66c-0.1-0.1-0.1-0.1-0.2-0.1c-0.2-0.2-0.5-0.3-0.8-0.4
			c-0.2,0-0.3,0-0.5,0h-0.7c-0.9,0-1.9,0.1-2.9,0.1c-1,0.1-1.9,0.1-2.9,0.3c-1,0.1-2,0.2-3.1,0.2c-0.5,0-1,0-1.5,0h-0.8
			c-0.2,0-0.4,0-0.5,0c-0.3,0-0.7,0.1-1,0.3c-0.2,0.1-0.3,0.2-0.4,0.3c-0.1,0.1-0.1,0.1-0.2,0.2l-0.3,0.2l-1.1,1
			c-0.6,0.5-1.3,0.8-1.9,0.9c-1.3,0.3-2.6,0-3.8-0.7c-0.6-0.3-1.1-0.9-1.5-1.6c-0.1-0.2-0.2-0.4-0.2-0.5l-0.1-0.4l-0.2-0.7
			c-0.2-0.5-0.3-1-0.5-1.2c-0.1-0.3-0.4-0.6-0.6-0.8c-0.1-0.1-0.3-0.2-0.4-0.3L17,62.7l-0.3-0.2c-0.5-0.2-0.9-0.5-1.4-0.8
			c-0.9-0.6-1.7-1.2-2.5-1.8c-1.6-1.3-3.1-2.9-4.3-4.6c-1.2-1.7-2.2-3.6-3-5.5l-0.3-0.7c-0.1-0.2-0.1-0.3-0.2-0.4
			c-0.2-0.2-0.4-0.4-0.6-0.6l-1.3-0.6l-0.7-0.3l-0.3-0.1c-0.2-0.1-0.3-0.2-0.5-0.3C0.3,46-0.3,44.4,0.1,43c0.2-0.7,0.7-1.3,1.3-1.8
			c0.3-0.2,0.5-0.3,0.7-0.4l0.6-0.4c0.4-0.3,0.9-0.5,1-0.6C3.9,39.6,4,39.4,4,39.1l0.3-1.5c0.1-0.5,0.2-1,0.3-1.5
			c1.1-4,3.3-7.7,6.3-10.5c6-5.7,14.1-8.6,22.2-8.9c4-0.2,8.1,0.2,12,1.2s7.7,2.7,11.1,5c1.7,1.1,3.2,2.5,4.7,3.9l1,1.2l0.5,0.6
			l0.5,0.6l0.9,1.2c0.3,0.4,0.5,0.9,0.8,1.3c0.6,0.9,0.9,1.8,1.4,2.8c0.2,0.5,0.3,1,0.5,1.5s0.3,1,0.4,1.5l0.3,1.5
			c0.1,0.4,0.2,0.7,0.4,0.9c0.2,0.3,0.4,0.4,0.9,0.6L69.6,41z"/>
	</g>
	<path class="st4" d="M69.2,41.8l-1.8-0.9c-0.7-0.4-1.2-1.1-1.3-1.9c-1.6-11.8-14.2-21.3-29.8-21.8C19.8,16.6,6,26.4,4.8,39.1l0,0
		c-0.1,0.7-0.4,1.3-1,1.7c-0.1,0-0.1,0.1-0.2,0.1c-0.8,0.5-1.7,1-1.7,1c-1.6,1-1.5,3.4,0.3,4.1l2.3,0.9c0.7,0.3,1.3,0.9,1.5,1.6
		c1.8,5.2,5.6,10,11.3,12.9c0.9,0.5,1.6,1.3,2,2.3l0.7,2c0.7,1.9,3.9,2.6,5.4,1.1l1.3-1.2c0.9-0.8,2-1.2,3.1-1.2
		c1.7,0,3.5,0,5.4-0.2c1.6-0.2,4.3-0.4,6-0.4h0.6c0.9,0,1.8,0.4,2.4,1.1l1.4,1.5c1.4,1.5,4.7,1.1,5.5-0.7l1-2.3
		c0.4-0.8,1-1.5,1.9-1.8c5.7-2.5,9.4-6.9,11.2-12.6c0.3-1.1,1.1-2,2.1-2.4l1.7-0.8C70.8,45.1,70.9,42.7,69.2,41.8z"/>
	<g>
		
			<linearGradient id="SVGID_2_" gradientUnits="userSpaceOnUse" x1="-57.7197" y1="-3307.6875" x2="-57.7197" y2="-3311.9214" gradientTransform="matrix(0.9974 -7.170265e-02 -7.170265e-02 -0.9974 -141.1835 -3303.292)">
			<stop  offset="0" style="stop-color:#DB8471"/>
			<stop  offset="0.6425" style="stop-color:#BF5C55"/>
		</linearGradient>
		<path class="st5" d="M40,4.1c0,0-2.7-1.5-2.9-4C37.1,0.1,39.2,0.7,40,4.1z"/>
		<path class="st1" d="M40,4.3L40,4.3c-0.2-0.1-2.9-1.6-3.1-4.2C36.9,0,36.9,0,37,0c0,0,0.1,0,0.2,0c0.1,0,2.2,0.7,3,4.2
			c0,0.1,0,0.1-0.1,0.2C40.1,4.3,40.1,4.3,40,4.3z M37.3,0.3c0.3,1.7,1.8,2.9,2.5,3.4C39.1,1.5,37.8,0.6,37.3,0.3z"/>
	</g>
	<path class="st6" d="M36.6,19.9c12,0.4,22.2,5.3,27.2,12.2c-4.6-8.4-15.1-14.5-27.5-14.9C21.4,16.7,8.6,24.6,5.5,35.6
		C8.9,26.1,21.7,19.4,36.6,19.9z"/>
	
		<ellipse transform="matrix(3.393568e-02 -0.9994 0.9994 3.393568e-02 10.9862 68.9137)" class="st7" cx="41.1" cy="28.8" rx="0.9" ry="0.9"/>
	
		<ellipse transform="matrix(3.393568e-02 -0.9994 0.9994 3.393568e-02 9.2112 60.0345)" class="st7" cx="35.7" cy="25.3" rx="0.8" ry="0.7"/>
	<path class="st7" d="M32,31.2L32,31.2c-0.6,0-1-0.5-1.1-1.1c0-0.4,0.1-0.7,0.4-0.9c0.2-0.2,0.5-0.2,0.8-0.2c0.2,0,0.4,0.1,0.6,0.2
		c0.2,0.1,0.3,0.2,0.2,0.4c0,0,0,0,0,0.1H33c0.2,0,0.3,0.2,0.3,0.4c0,0.3-0.1,0.6-0.3,0.9C32.7,31,32.3,31.2,32,31.2z M31.9,29.6
		c-0.1,0-0.2,0-0.3,0.1s-0.1,0.2-0.1,0.4c0,0.3,0.2,0.5,0.5,0.5c0.1,0,0.3-0.1,0.4-0.2c0.1-0.2,0.2-0.4,0.2-0.5v-0.1
		c-0.1,0-0.1,0-0.2,0l0,0C32.3,29.6,32.1,29.6,31.9,29.6C32,29.6,31.9,29.6,31.9,29.6z"/>
	<path class="st7" d="M16.2,50c-0.3,0-0.6-0.1-0.8-0.3c-0.2-0.1-0.3-0.3-0.3-0.5s0-0.3,0.1-0.4l0,0c0-0.4,0.3-0.7,0.7-0.8H16
		c0.1,0,0.2,0,0.2,0c0.5,0,1,0.4,1.1,0.9s-0.1,1-0.6,1.2C16.6,50,16.4,50,16.2,50z M16.2,48.4c-0.2,0.2-0.3,0.4-0.4,0.6
		c0,0.1,0,0.1,0,0.1s0,0,0.1,0.1c0.2,0.1,0.4,0.2,0.6,0.1c0.2-0.1,0.3-0.3,0.3-0.5C16.7,48.6,16.5,48.4,16.2,48.4
		C16.3,48.4,16.3,48.4,16.2,48.4z"/>
	<path class="st7" d="M63.9,32.1c-0.6-1.1-1.2-2.1-2-3.1c-1.6-2.1-4.4-2.8-6.7-1.6c-0.8,0.4-1.7,1-2.5,1.8c-3.9,3.6-3.2,7-2.9,8.1
		c0.5,1.6,1.5,3,3.1,3.1c0.6,0,1.2-0.2,1.7-0.5c0.7-0.5,1.1-1.3,1-2.3c0,0-0.1-2.4,1.3-3.8c0.9-0.9,2.5-1.2,4.6-0.8
		C62.5,33.1,63.3,32.8,63.9,32.1z"/>
	<path class="st7" d="M6.6,32.3L6.6,32.3c0.7,0.6,1.6,0.8,2.5,0.5c0,0,2.4-0.7,4,0.4c1.1,0.7,1.7,2.2,1.9,4.3
		c0.1,1.6,1.5,2.7,3.1,2.3c1.6-0.3,2.5-1.8,2.7-3.5c0.3-3.1-0.7-5.9-4.2-8.3c-0.1-0.1-0.2-0.2-0.4-0.2c-2.5-1.5-5.8-0.8-7.6,1.6
		C7.9,30.4,7.3,31.3,6.6,32.3z"/>
	<ellipse transform="matrix(0.9726 -0.2325 0.2325 0.9726 -4.2914 6.5002)" class="st8" cx="25.4" cy="21.5" rx="4" ry="2.6"/>
	<path class="st7" d="M66.3,40.6c-1.6,11-9.6,18.4-24.1,18.3c-1.1,0-4.2,0-5.2,0.2C18.5,61.8,7.8,51.5,5.6,40.2
		c-0.9,2.4-3.4,3.5-4.7,3.2c-0.2,1,0.3,2.1,1.4,2.5l2.3,0.9c0.7,0.3,1.3,0.9,1.5,1.6c1.8,5.2,5.6,10,11.3,12.9
		c0.9,0.5,1.6,1.3,2,2.3l0.7,2c0.7,1.9,3.9,2.6,5.4,1.1l1.3-1.2c0.9-0.8,2-1.2,3.1-1.2c1.7,0,3.5,0,5.4-0.2c1.6-0.2,4.3-0.4,6-0.4
		h0.6c0.9,0,1.8,0.4,2.4,1.1l1.4,1.5c1.4,1.5,4.7,1.1,5.5-0.7l1-2.3c0.4-0.8,1-1.5,1.9-1.8c5.7-2.5,9.4-6.9,11.2-12.6
		c0.3-1.1,1.1-2,2.1-2.4l1.7-0.8c0.9-0.4,1.3-1.3,1.3-2.1C68.4,43,66.3,41.1,66.3,40.6z M25.6,65.9c-0.4,1.1-2.6,1.6-3.9,0.6
		c-0.9-0.7-1.5-2-1.2-2.6C21.1,62.9,25.9,65,25.6,65.9z M50.3,66.1c-1.3,1.1-3.9,1-4.5-0.2c-0.4-0.7,4.5-2.8,5-2
		C51.3,64.5,50.9,65.6,50.3,66.1z"/>
	<path class="st9" d="M54.5,60.4c0,0-1.1,1.5-1.9,0.9c-0.7-0.6-0.1-2.5,1.6-3.1c1.7-0.6,2.8,0.4,1.3,1.5
		C54.1,60.8,54.5,60.4,54.5,60.4z"/>
	<g>
		<path class="st2" d="M53.6,61c-0.4-0.4-0.1-0.9,0.3-1.4c0.4-0.5,1.3-0.9,1.7-0.4c0,0,5.1,5.5,4.2,6.4C59.1,66.3,53.6,61,53.6,61z"
			/>
		<path class="st3" d="M55.1,59c0.2,0,0.4,0.1,0.5,0.2c0,0,5.1,5.5,4.2,6.4c0,0-0.1,0.1-0.2,0.1c-1.2,0-6-4.6-6-4.6
			c-0.4-0.4-0.1-0.9,0.3-1.4C54.2,59.3,54.6,59,55.1,59 M55.1,58.6L55.1,58.6c-0.6,0-1.2,0.4-1.5,0.8c-0.6,0.7-0.7,1.4-0.2,1.9
			c1.2,1.1,5,4.8,6.3,4.8c0.2,0,0.4-0.1,0.4-0.2c1-1-2.2-4.8-4.2-6.9C55.6,58.7,55.4,58.6,55.1,58.6L55.1,58.6z"/>
	</g>
	<g>
		<path class="st7" d="M23,53.5c-1.9-1.1-1.7-11.2,2.3-16.8c2.1-2.9,4.6-4.2,8.2-4.4c3.6-0.2,8.1,0.1,10.2,2.7
			c4,4.9,5.3,16.3,3.3,17.4c-3.5,2-4.8,2.4-10,2.8C31.8,55.5,26.3,55.4,23,53.5z"/>
		<g>
			<path class="st3" d="M41.9,53.9c2.7-1.9,4-6.4,4.1-10c0-0.1,0.1-2.3,0.1-4.4c-0.6-1.7-1.5-3.3-2.4-4.5c-2.2-2.6-6.6-2.9-10.2-2.7
				c-3.6,0.2-6.1,1.5-8.2,4.4c-0.7,1-1.3,2.2-1.8,3.5c0.4,4.8,3,13.1,7.4,13.5C30.9,53.7,41.9,53.9,41.9,53.9z"/>
		</g>
		<path class="st8" d="M45.2,37.3c-0.4-0.9-0.9-1.6-1.5-2.3c-2.2-2.6-6.3-2.8-9.9-2.6c-3.6,0.2-6.5,1.5-8.6,4.3
			c-0.6,0.9-0.7,1-1.1,2C28.9,37.2,36.4,36.3,45.2,37.3z"/>
		<g>
			<path class="st10" d="M26.8,53.4c0,0,2.9-9.3,8.8-11.1c2.4-0.7,5-0.3,7,1.2c0.8,0.6,1.5,1.4,1.7,2.3c0.2,0.9-0.4,1.7-1.3,1.8
				c-2.1,0.2-2.5,0.1-4.3,0c-1.1,1.4,0.4,6.5,0.4,6.5L26.8,53.4z"/>
			<path class="st1" d="M38,42c1.6,0,3.3,0.5,4.6,1.5c0.8,0.6,1.5,1.4,1.7,2.3c0.2,0.9-0.4,1.7-1.3,1.8c-1,0.1-1.6,0.1-2.2,0.1
				c-0.6,0-1.2,0-2.2-0.1C37.5,49,39,54.1,39,54.1l-12.3-0.7c0,0,2.9-9.3,8.8-11.1C36.4,42.1,37.2,42,38,42 M38,41.6L38,41.6
				c-0.8,0-1.7,0.1-2.5,0.4c-6.1,1.8-9,11-9.1,11.4l-0.2,0.5h0.5L39,54.6h0.6L39.4,54c-0.5-1.8-1.2-4.9-0.6-6h0.3
				c0.7,0,1.2,0.1,1.7,0.1c0.6,0,1.2,0,2.2-0.1c0.6-0.1,1.1-0.3,1.4-0.8c0.3-0.4,0.4-1,0.3-1.5c-0.2-0.9-0.9-1.8-1.9-2.5
				C41.5,42.1,39.8,41.6,38,41.6L38,41.6z"/>
		</g>
		<g>
			<path class="st11" d="M27.6,51.6c0,0,2-7.5,8-9.3c2.4-0.7,5-0.3,7,1.2c0.8,0.6,1.5,1.4,1.7,2.3c0.2,0.9-0.4,1.7-1.3,1.8
				c-2.1,0.2-6.3,0.4-8.7-1.4c0,0-2.4,0-4.3,4.8C29.8,51.5,27.6,51.6,27.6,51.6z"/>
		</g>
		<path class="st8" d="M46.6,52.8c0.5-0.2,0.7-0.8,0.8-1.5c-10.1-3.4-21.1-1-25.4,0.7c0.1,0.9,0.4,1.5,0.9,1.7
			c3.3,1.6,9.2,1.6,14.4,1.3C43.4,54.6,43.2,54.5,46.6,52.8z"/>
		<path class="st2" d="M33.3,55.6c-3.7,0-7.9-0.4-10.5-1.8l0,0c-0.5-0.3-0.8-0.9-1.1-1.9c-0.8-3.3,0-10.7,3.3-15.3
			c2-2.8,4.9-4.3,8.8-4.5c3.5-0.2,7.8,0,10.1,2.7c4.1,4.9,4.9,16,3.3,17.7c-1.6,1.7-3.2,2.4-9.4,2.8C36.6,55.5,35,55.6,33.3,55.6z
			 M35.7,32.6c-0.6,0-1.3,0-1.9,0.1c-3.7,0.2-6.4,1.6-8.3,4.2c-3.2,4.5-3.9,11.6-3.2,14.8c0.2,0.8,0.5,1.4,0.8,1.6l0,0
			c3.7,2,10.8,1.9,14.7,1.6c6-0.4,7.6-1.1,9-2.6c1.3-1.4,0.7-12.2-3.4-17C41.7,33.1,38.6,32.6,35.7,32.6z"/>
	</g>
	<path class="st7" d="M23.5,57.7c-0.3,0-0.5,0-0.8-0.1c-1.1-0.4-1.6-1.4-1.6-1.5s0-0.3,0.1-0.3c0.1-0.1,0.3,0,0.3,0.1
		c0,0,0.4,0.9,1.3,1.2c0.7,0.2,1.5,0,2.5-0.5c0.1-0.1,0.3,0,0.3,0.1c0.1,0.1,0,0.3-0.1,0.3C24.9,57.4,24.2,57.7,23.5,57.7z"/>
	<path class="st7" d="M47.2,55.5c-0.3,0-0.7,0-1.1-0.1c-0.1,0-0.2-0.2-0.2-0.3s0.2-0.2,0.3-0.2c1,0.2,1.8,0.2,2.2-0.2
		c0.6-0.6,0.5-1.6,0.5-1.6c0-0.1,0.1-0.2,0.2-0.3c0.1,0,0.2,0.1,0.3,0.2c0,0.1,0.1,1.3-0.7,2C48.3,55.4,47.8,55.5,47.2,55.5z"/>
	<ellipse transform="matrix(0.9286 -0.371 0.371 0.9286 -6.4646 20.9872)" class="st9" cx="51.3" cy="27.3" rx="3.5" ry="1.5"/>
	<ellipse transform="matrix(0.3913 -0.9203 0.9203 0.3913 -13.5653 34.3901)" class="st9" cx="19.2" cy="27.4" rx="1.5" ry="3.5"/>
	<g>
		<g>
			<path class="st12" d="M63.1,39.7c1.5-1.9,2.1-6.5-1.7-9.9c-5.2-4.7-11.1,2.3-9.7,7.7C53.2,42.9,58.2,45.7,63.1,39.7z"/>
			<path class="st2" d="M63,39.6c1-1.4,1.3-3.2,1-4.9c-0.3-1.7-1.2-3.3-2.5-4.5c-0.3-0.3-0.7-0.5-1-0.8c-0.4-0.3-0.8-0.4-1.1-0.6
				c-0.8-0.3-1.7-0.4-2.5-0.2s-1.6,0.6-2.3,1.2c-0.4,0.3-0.6,0.6-0.9,0.9c-0.3,0.4-0.5,0.7-0.7,1.1c-0.8,1.5-1.3,3.3-1,5
				s1.1,3.4,2.3,4.6c0.6,0.6,1.4,1.1,2.2,1.3s1.7,0.2,2.5,0C60.5,42.1,61.8,40.9,63,39.6z M63.3,39.9c-1.1,1.4-2.6,2.7-4.4,3.2
				c-0.9,0.3-1.9,0.3-2.8,0c-0.9-0.3-1.7-0.8-2.4-1.4c-1.3-1.3-2.1-3.1-2.4-4.9c-0.3-1.8,0.2-3.7,1.1-5.3c0.2-0.4,0.5-0.8,0.8-1.1
				s0.6-0.7,1-1c0.7-0.6,1.5-1,2.4-1.2s1.9-0.1,2.7,0.2c0.4,0.2,0.9,0.4,1.2,0.6c0.4,0.3,0.8,0.5,1.1,0.9c1.3,1.2,2.3,2.9,2.6,4.7
				C64.7,36.4,64.5,38.3,63.3,39.9z"/>
		</g>
		<path class="st13" d="M57.2,37.2c0,0,1.8-2.1-0.1-4.1c-1.9-2.1-3.4,0.7-3.3,1.5C53.9,35.4,54.4,38.5,57.2,37.2z"/>
		<path class="st12" d="M55.8,34.5c0,0,0-1-0.9-1s-0.7,1.1-0.5,1.3S55.4,35.6,55.8,34.5z"/>
	</g>
	<g>
		<g>
			<path class="st12" d="M7.7,40.3c-1.5-1.9-2.1-6.5,1.7-9.9c5.2-4.7,11.1,2.3,9.7,7.7C17.6,43.5,12.6,46.3,7.7,40.3z"/>
			<path class="st2" d="M7.5,40.5C6.4,39,6.1,37,6.4,35.2c0.3-1.8,1.3-3.5,2.6-4.7c0.3-0.3,0.7-0.6,1.1-0.9c0.4-0.3,0.8-0.4,1.2-0.6
				c0.9-0.3,1.8-0.4,2.7-0.2s1.8,0.6,2.4,1.2c0.4,0.3,0.7,0.6,1,1s0.6,0.7,0.8,1.1c0.9,1.6,1.4,3.5,1.1,5.3
				c-0.3,1.8-1.1,3.5-2.4,4.9c-0.7,0.6-1.5,1.2-2.4,1.4c-0.9,0.3-1.9,0.2-2.8,0C10,43.1,8.6,41.9,7.5,40.5z M7.8,40.2
				c1.1,1.4,2.5,2.6,4.1,3c0.8,0.2,1.7,0.3,2.5,0c0.8-0.2,1.5-0.7,2.2-1.3c1.2-1.2,2-2.9,2.3-4.6c0.3-1.7-0.2-3.5-1-5
				c-0.2-0.4-0.5-0.7-0.7-1.1c-0.3-0.3-0.6-0.7-0.9-0.9c-0.6-0.6-1.5-1-2.3-1.2s-1.7-0.1-2.5,0.2c-0.4,0.2-0.8,0.4-1.1,0.6
				c-0.3,0.3-0.7,0.5-1,0.8c-1.3,1.2-2.2,2.8-2.5,4.5C6.5,36.9,6.8,38.8,7.8,40.2z"/>
		</g>
		<path class="st13" d="M13.7,37.8c0,0-1.8-2.1,0.1-4.1c1.9-2.1,3.4,0.7,3.3,1.5C16.9,36,16.4,39.1,13.7,37.8z"/>
		<path class="st12" d="M15,35.1c0,0,0-1,0.9-1c0.9,0,0.7,1.1,0.5,1.3S15.4,36.2,15,35.1z"/>
	</g>
	<g>
		<path class="st4" d="M53.2,40.6c4.6-2.6,9.7-1.2,10-0.8C59.3,44.5,55.4,43.7,53.2,40.6z"/>
		<path class="st2" d="M52.9,40.5c0.6-0.4,1-0.4,1.4-0.6c0.4-0.2,0.8-0.3,1.2-0.5c0.8-0.3,1.7-0.4,2.6-0.5c0.9-0.1,1.7-0.1,2.6,0
			c0.4,0,0.9,0.1,1.3,0.2c0.2,0,0.4,0.1,0.7,0.2c0.1,0,0.2,0.1,0.3,0.1c0.1,0.1,0.2,0.1,0.4,0.2c0.1,0.1,0.1,0.2,0,0.3l0,0l0,0
			c-0.6,0.8-1.4,1.5-2.2,2.1s-1.8,1.1-2.8,1.3s-2.1,0-3.1-0.5c-0.5-0.2-0.9-0.6-1.3-0.9c-0.2-0.2-0.4-0.4-0.5-0.6L53.3,41
			C53.1,40.9,53,40.7,52.9,40.5z M53.4,40.6c0.1,0,0.1,0,0.2,0.1l0.2,0.3c0.2,0.2,0.3,0.4,0.5,0.5c0.4,0.3,0.7,0.6,1.2,0.8
			c0.8,0.4,1.8,0.6,2.7,0.4c0.9-0.2,1.8-0.6,2.6-1.2c0.8-0.6,1.5-1.3,2.1-2l0,0v0.3c0,0-0.1-0.1-0.2-0.1c-0.1,0-0.2-0.1-0.3-0.1
			c-0.2-0.1-0.4-0.1-0.6-0.2c-0.4-0.1-0.8-0.2-1.2-0.2c-0.8-0.1-1.7-0.1-2.6-0.1c-0.9,0.1-1.7,0.2-2.5,0.5c-0.4,0.1-0.8,0.3-1.2,0.4
			C54,40.3,53.6,40.6,53.4,40.6z"/>
	</g>
	<g>
		<path class="st4" d="M17.7,41.2c-4.6-2.6-9.7-1.2-10-0.8C11.5,45,15.4,44.3,17.7,41.2z"/>
		<path class="st2" d="M17.4,41.2c-0.2,0-0.6-0.4-0.9-0.5c-0.4-0.2-0.8-0.3-1.2-0.4c-0.8-0.2-1.7-0.4-2.5-0.5
			c-0.9-0.1-1.7,0-2.6,0.1C9.8,40,9.4,40,9,40.1c-0.2,0.1-0.4,0.1-0.6,0.2c-0.1,0-0.2,0.1-0.3,0.1s-0.2,0.1-0.2,0.1v-0.3l0,0
			c0.6,0.8,1.3,1.5,2.1,2c0.8,0.6,1.7,1,2.6,1.2c0.9,0.2,1.9,0,2.7-0.4c0.4-0.2,0.8-0.5,1.2-0.8c0.2-0.2,0.3-0.3,0.5-0.5l0.2-0.3
			C17.3,41.3,17.3,41.3,17.4,41.2z M17.9,41.1c-0.1,0.2-0.2,0.4-0.3,0.5l-0.2,0.3c-0.2,0.2-0.4,0.4-0.5,0.6
			c-0.4,0.4-0.8,0.7-1.3,0.9c-0.9,0.5-2,0.7-3.1,0.5c-1-0.2-2-0.6-2.8-1.3c-0.8-0.6-1.5-1.3-2.2-2.1l0,0l0,0c-0.1-0.1-0.1-0.2,0-0.3
			C7.7,40,7.8,40,7.9,40c0.1,0,0.2-0.1,0.3-0.1c0.2-0.1,0.4-0.1,0.7-0.2c0.4-0.1,0.9-0.1,1.3-0.2c0.9-0.1,1.7-0.1,2.6,0
			c0.9,0.1,1.7,0.3,2.6,0.5c0.4,0.1,0.8,0.3,1.2,0.5C17,40.7,17.3,40.7,17.9,41.1z"/>
	</g>
</g>
</svg>
